<svg id="圖層_1" data-name="圖層 1" xmlns="http://www.w3.org/2000/svg" viewBox="0 0 77.81 77.8"><defs><style>.cls-1{fill:#2dad38;}.cls-2{fill:#fff;}</style></defs><rect class="cls-1" width="77.81" height="77.8" rx="38.9"/><path class="cls-2" d="M63.9,35.37c0-11.19-11.21-20.29-25-20.29s-25,9.1-25,20.29c0,10,8.9,18.43,20.91,20,.82.18,1.92.54,2.2,1.24a4.93,4.93,0,0,1,.08,2.26s-.29,1.76-.35,2.14c-.11.63-.5,2.47,2.16,1.35s14.4-8.48,19.65-14.52h0C62.17,43.88,63.9,39.85,63.9,35.37ZM30.08,42.64a.47.47,0,0,1-.48.48h-7a.51.51,0,0,1-.34-.13h0a.48.48,0,0,1-.14-.33h0V31.75a.49.49,0,0,1,.49-.49h1.76a.49.49,0,0,1,.48.49V40.4H29.6a.47.47,0,0,1,.48.48Zm4.23,0a.48.48,0,0,1-.49.48H32.07a.48.48,0,0,1-.49-.48V31.75a.49.49,0,0,1,.49-.49h1.75a.49.49,0,0,1,.49.49Zm12.07,0a.48.48,0,0,1-.49.48h-2l0,0h0l-.12-.12-5-6.75v6.47a.48.48,0,0,1-.48.48H36.5a.47.47,0,0,1-.48-.48V31.75a.48.48,0,0,1,.48-.49h2l0,0h.06a0,0,0,0,0,0,0h0l0,0h0a.1.1,0,0,1,0,.05l5,6.74V31.75a.49.49,0,0,1,.49-.49h1.75a.49.49,0,0,1,.49.49Zm9.68-9.14a.48.48,0,0,1-.48.49H50.81v1.84h4.77a.48.48,0,0,1,.48.48v1.76a.48.48,0,0,1-.48.49H50.81V40.4h4.77a.47.47,0,0,1,.48.48v1.76a.47.47,0,0,1-.48.48h-7a.47.47,0,0,1-.33-.13h0a.47.47,0,0,1-.13-.33h0V31.75h0a.51.51,0,0,1,.13-.34h0a.48.48,0,0,1,.34-.14h7a.48.48,0,0,1,.48.49Z"/></svg>