<?xml version="1.0" encoding="utf-8"?>
<!-- Generator: Adobe Illustrator 25.0.0, SVG Export Plug-In . SVG Version: 6.00 Build 0)  -->
<svg version="1.1" id="圖層_2" xmlns="http://www.w3.org/2000/svg" xmlns:xlink="http://www.w3.org/1999/xlink" x="0px" y="0px"
	 viewBox="0 0 270.3 91.5" style="enable-background:new 0 0 270.3 91.5;" xml:space="preserve">
<style type="text/css">
	.st0{fill:#00243A;}
</style>
<g>
	<path class="st0" d="M38.7,29.8c0,0.9-0.7,1.6-1.6,1.6c-0.9,0-1.6-0.7-1.6-1.6c0-0.9,0.7-1.6,1.6-1.6C38,28.2,38.7,28.9,38.7,29.8z
		"/>
	<g id="rFYvpG_7_">
		<g>
			<path class="st0" d="M38.7,46.5c0-2.3,0-4.6,0-6.9c0-1,0.4-1.9,1-2.8c0.7-1,1.6-1.8,2.7-2.4c1.4-0.8,2.9-1.3,4.5-1.5
				c1.2-0.2,2.4-0.3,3.7-0.2c2.3,0.2,4.5,0.8,6.4,2.1c1.2,0.8,2.1,1.8,2.7,3.1c0.2,0.6,0.4,1.3,0.3,1.9c0,0.4-0.4,0.7-0.8,0.7
				c-0.4,0-0.8-0.3-0.8-0.7c0-1.1-0.5-2-1.3-2.8c-1-1-2.3-1.7-3.7-2.1c-1.7-0.5-3.4-0.7-5.2-0.6c-1.5,0.1-2.9,0.4-4.2,1
				c-1.1,0.5-2.1,1.1-2.9,2c-0.6,0.7-1,1.6-1,2.6c0,4.5,0,8.9,0,13.4c0,1.6-1,2.8-2.5,3.2c-1.7,0.4-3.5-0.9-3.7-2.6
				c0-0.3-0.1-0.6-0.1-0.8c0-4.1,0-8.3,0-12.4c0-0.5,0-1.1-0.1-1.6c-0.2-0.8-0.7-1.5-1.3-2.1c-1.3-1.2-2.9-1.9-4.6-2.2
				c-1.2-0.3-2.4-0.4-3.6-0.3c-2.1,0.1-4.1,0.5-6,1.6c-0.9,0.5-1.7,1.2-2.2,2.2c-0.3,0.5-0.4,1.1-0.5,1.7c0,0.5-0.4,0.9-0.8,0.8
				c-0.5,0-0.8-0.4-0.7-0.9c0.1-1.9,1-3.3,2.4-4.4c1.4-1.1,3-1.8,4.8-2.2c1.5-0.3,3.1-0.5,4.6-0.3c2.1,0.2,4.2,0.7,6,1.8
				c1.2,0.7,2.2,1.7,2.9,3c0.4,0.7,0.6,1.5,0.6,2.4c0,4.4,0,8.8,0,13.2c0,0.5,0.1,1,0.5,1.4c0.5,0.4,1.2,0.6,1.7,0.3
				c0.6-0.3,0.9-0.8,0.9-1.4C38.7,51.1,38.7,48.8,38.7,46.5z"/>
		</g>
	</g>
</g>
<g>
	<path class="st0" d="M76,60.5c0-0.1,0-0.1,0-0.1c0,0,0-0.1-0.1-0.1l-1.6-2.4c0-0.1,0-0.1,0-0.1c0-0.1,0-0.1,0.1-0.2
		c0,0,0.1-0.1,0.2-0.1c0.1,0,0.2,0,0.2,0.1c0.1,0.1,0.2,0.3,0.3,0.5c0.1,0.2,0.2,0.4,0.4,0.6c0.1,0.2,0.3,0.4,0.4,0.6
		c0.1,0.2,0.3,0.4,0.4,0.6c0,0.1,0.1,0.1,0.1,0.1c0,0,0.1-0.1,0.2-0.2c0.1-0.1,0.2-0.2,0.3-0.4c0.1-0.2,0.2-0.3,0.3-0.5
		c0.1-0.2,0.2-0.4,0.3-0.5c0.1-0.2,0.2-0.3,0.3-0.4c0.1-0.1,0.1-0.2,0.1-0.2c0,0,0-0.1,0.1-0.1c0,0,0.1,0,0.1,0c0.1,0,0.1,0,0.2,0.1
		c0.1,0,0.1,0.1,0.1,0.2c0,0,0,0.1,0,0.1c-0.1,0.1-0.1,0.2-0.2,0.3c-0.1,0.1-0.2,0.3-0.3,0.4c-0.1,0.1-0.2,0.3-0.3,0.4
		c-0.1,0.2-0.2,0.3-0.3,0.5c-0.1,0.1-0.2,0.3-0.3,0.4c-0.1,0.1-0.2,0.3-0.3,0.4c0,0,0,0.1-0.1,0.1c0,0,0,0,0,0.1c0,0,0,0,0,0.1
		s0,0,0,0.1c0,0.1,0,0.2,0,0.4c0,0.1,0,0.3,0,0.4c0,0.2,0,0.3,0,0.5c0,0.2,0,0.3,0,0.5c0,0.1,0,0.1-0.1,0.2c0,0-0.1,0.1-0.2,0.1
		c-0.1,0-0.1,0-0.2-0.1c0,0-0.1-0.1-0.1-0.2V60.5z"/>
	<path class="st0" d="M83.3,62.3c0,0.1,0,0.1-0.1,0.2c0,0-0.1,0.1-0.2,0.1c0,0-0.1,0-0.1,0c0,0-0.1-0.1-0.1-0.1c0,0,0-0.1-0.1-0.2
		c0-0.1-0.1-0.2-0.1-0.4c-0.1-0.1-0.1-0.3-0.2-0.5c-0.1-0.2-0.1-0.3-0.2-0.5c0,0,0,0,0-0.1c0,0,0,0-0.1,0c-0.1,0-0.2,0-0.3,0
		c-0.1,0-0.3,0-0.5,0c-0.1,0-0.2,0-0.4,0c-0.1,0-0.2,0-0.3,0c-0.1,0-0.2,0-0.3,0c-0.1,0-0.1,0-0.2,0c0,0-0.1,0-0.1,0c0,0,0,0,0,0.1
		c0,0.1-0.1,0.3-0.1,0.4c0,0.1-0.1,0.3-0.1,0.4c0,0.1-0.1,0.3-0.1,0.4c0,0.1-0.1,0.2-0.1,0.3c0,0.1,0,0.1-0.1,0.1c0,0-0.1,0-0.1,0
		c-0.1,0-0.1,0-0.1,0c0,0-0.1-0.1-0.1-0.1c0,0,0,0,0-0.1c0.1-0.2,0.1-0.4,0.2-0.7c0.1-0.3,0.2-0.5,0.3-0.8c0.1-0.3,0.2-0.6,0.3-0.8
		c0.1-0.3,0.2-0.5,0.3-0.8c0.1-0.3,0.2-0.5,0.3-0.7c0.1-0.2,0.1-0.4,0.2-0.6c0-0.1,0.1-0.2,0.2-0.3c0.1-0.1,0.2-0.1,0.3-0.1
		c0.1,0,0.2,0,0.3,0.1c0.1,0.1,0.2,0.2,0.2,0.3c0.1,0.2,0.2,0.5,0.3,0.7c0.1,0.3,0.2,0.6,0.3,0.8c0.1,0.3,0.2,0.6,0.3,0.9
		c0.1,0.3,0.2,0.6,0.3,0.8c0.1,0.3,0.2,0.5,0.2,0.7C83.2,62,83.2,62.1,83.3,62.3C83.3,62.2,83.3,62.3,83.3,62.3z M82.1,60.3
		C82.1,60.3,82.1,60.3,82.1,60.3c-0.1-0.2-0.1-0.4-0.2-0.6c-0.1-0.2-0.2-0.4-0.2-0.6c-0.1-0.2-0.1-0.4-0.2-0.6
		c-0.1-0.2-0.1-0.3-0.1-0.4c0-0.1-0.1-0.2-0.1-0.2c-0.1,0-0.1,0.1-0.1,0.2c0,0.1-0.1,0.2-0.1,0.3c0,0.1-0.1,0.3-0.2,0.4
		c-0.1,0.2-0.1,0.3-0.2,0.5c-0.1,0.2-0.1,0.3-0.2,0.5c0,0.1-0.1,0.3-0.1,0.4c0,0.1,0,0.1,0,0.2c0,0,0,0,0.1,0c0.1,0,0.2,0,0.3,0
		c0.2,0,0.3,0,0.5,0c0.2,0,0.4,0,0.5,0C81.9,60.3,82,60.3,82.1,60.3C82.1,60.3,82.1,60.3,82.1,60.3z"/>
	<path class="st0" d="M89.1,62c0,0.2-0.1,0.3-0.2,0.4c-0.1,0.1-0.2,0.1-0.3,0.1c-0.1,0-0.2,0-0.2-0.1c-0.1,0-0.2-0.1-0.2-0.2
		c-0.1-0.1-0.2-0.3-0.3-0.5c-0.1-0.2-0.3-0.5-0.4-0.7c-0.2-0.3-0.3-0.6-0.5-0.8c-0.2-0.3-0.3-0.6-0.5-0.8c-0.1-0.3-0.3-0.5-0.4-0.7
		c-0.1-0.2-0.2-0.4-0.3-0.5c0,0-0.1-0.1-0.1-0.1c0,0-0.1,0-0.1,0c0,0-0.1,0-0.1,0.1c0,0.1,0,0.2,0,0.5c0,0.1,0,0.3,0,0.5
		c0,0.2,0,0.4,0,0.7c0,0.2,0,0.5,0,0.7c0,0.2,0,0.5,0,0.7c0,0.2,0,0.4,0,0.6c0,0.2,0,0.3,0,0.5v0c0,0.1,0,0.1-0.1,0.2
		c0,0-0.1,0.1-0.2,0.1c-0.1,0-0.1,0-0.2-0.1c0,0-0.1-0.1-0.1-0.2v0c0-0.3,0-0.7,0-1c0-0.4,0-0.7,0-1.1c0-0.4,0-0.8,0-1.2
		c0-0.4,0-0.7,0-1v0c0-0.2,0-0.3,0.1-0.4c0.1-0.1,0.2-0.1,0.3-0.1c0.1,0,0.2,0,0.3,0.1c0.1,0.1,0.2,0.1,0.2,0.2
		c0.1,0.1,0.2,0.3,0.3,0.5c0.1,0.2,0.3,0.4,0.4,0.7c0.1,0.3,0.3,0.5,0.5,0.8c0.2,0.3,0.3,0.6,0.5,0.8c0.1,0.3,0.3,0.5,0.4,0.7
		c0.1,0.2,0.2,0.4,0.3,0.5c0,0.1,0.1,0.1,0.1,0.1c0,0,0.1,0,0.1-0.1c0-0.1,0-0.1,0-0.2c0-0.1,0-0.3,0-0.5c0-0.2,0-0.4,0-0.7
		c0-0.3,0-0.5,0-0.8c0-0.3,0-0.5,0-0.8c0-0.3,0-0.5,0-0.7c0-0.2,0-0.4,0-0.5v0c0-0.1,0-0.1,0.1-0.2c0,0,0.1-0.1,0.2-0.1
		c0.1,0,0.1,0,0.2,0.1c0,0,0.1,0.1,0.1,0.2v0c0,0.2,0,0.4,0,0.7c0,0.2,0,0.5,0,0.8c0,0.3,0,0.5,0,0.8c0,0.3,0,0.5,0,0.8
		c0,0.3,0,0.5,0,0.7C89.1,61.7,89.1,61.9,89.1,62L89.1,62z"/>
	<path class="st0" d="M93.9,60.4c-0.1,0-0.1,0-0.2-0.1c0,0-0.1-0.1-0.1-0.2c0-0.1,0-0.2,0.1-0.2c0.1,0,0.2,0,0.3,0
		c0.2,0,0.4,0,0.5,0c0.2,0,0.3,0,0.5,0c0.2,0,0.4,0.1,0.5,0.2c0.1,0.1,0.2,0.3,0.2,0.5c0,0.2,0,0.4-0.1,0.6
		c-0.1,0.2-0.2,0.4-0.4,0.6c-0.2,0.2-0.4,0.4-0.7,0.5c-0.3,0.1-0.6,0.2-1,0.2c-0.3,0-0.6-0.1-0.9-0.2c-0.3-0.1-0.5-0.3-0.8-0.5
		c-0.2-0.2-0.4-0.5-0.5-0.8c-0.1-0.3-0.2-0.7-0.2-1c0-0.3,0.1-0.6,0.2-1c0.1-0.3,0.3-0.6,0.5-0.8c0.2-0.2,0.5-0.4,0.8-0.6
		c0.3-0.2,0.7-0.2,1.1-0.2c0.2,0,0.5,0,0.7,0.1c0.2,0.1,0.4,0.1,0.5,0.2c0.2,0.1,0.3,0.2,0.4,0.3c0.1,0.1,0.1,0.2,0.1,0.3
		c0,0.1,0,0.1-0.1,0.2c0,0-0.1,0.1-0.2,0.1c-0.1,0-0.1,0-0.2-0.1c-0.1-0.2-0.3-0.4-0.6-0.5c-0.2-0.1-0.5-0.1-0.7-0.1
		c-0.3,0-0.6,0.1-0.9,0.2c-0.3,0.1-0.5,0.3-0.6,0.5c-0.2,0.2-0.3,0.4-0.4,0.7c-0.1,0.3-0.1,0.5-0.1,0.8c0,0.3,0,0.5,0.1,0.8
		c0.1,0.3,0.2,0.5,0.4,0.7c0.2,0.2,0.4,0.3,0.6,0.4c0.2,0.1,0.5,0.2,0.8,0.2c0.3,0,0.6-0.1,0.8-0.2c0.2-0.1,0.4-0.2,0.5-0.4
		c0.1-0.1,0.2-0.3,0.3-0.5c0.1-0.2,0.1-0.3,0.1-0.4c0-0.1,0-0.1,0-0.2c0,0-0.1-0.1-0.1-0.1c0,0-0.1,0-0.1,0c-0.1,0-0.1,0-0.1,0
		c-0.1,0-0.3,0-0.5,0C94.2,60.4,94.1,60.4,93.9,60.4L93.9,60.4z"/>
	<path class="st0" d="M97.9,57.9c-0.1,0-0.1,0-0.2-0.1c0,0-0.1-0.1-0.1-0.1c0-0.1,0-0.1,0.1-0.2c0,0,0.1-0.1,0.2-0.1h0
		c0.1,0,0.3,0,0.4,0c0.2,0,0.3,0,0.5,0c0.3,0,0.6,0,0.8,0c0.3,0,0.5,0,0.7,0h0c0.2,0,0.3,0,0.4,0.1c0.1,0.1,0.1,0.2,0.1,0.3
		c0,0.1-0.1,0.3-0.2,0.4c-0.1,0.1-0.2,0.3-0.4,0.5c-0.2,0.2-0.3,0.4-0.5,0.6c-0.2,0.2-0.3,0.4-0.5,0.7c-0.2,0.2-0.4,0.5-0.5,0.7
		c-0.2,0.2-0.3,0.4-0.5,0.6c-0.1,0.2-0.3,0.3-0.3,0.4c-0.1,0.1-0.1,0.1-0.1,0.2c0,0.1,0,0.1,0.1,0.1c0.1,0,0.2,0,0.4,0
		c0.1,0,0.3,0,0.6,0c0.2,0,0.5,0,0.7,0c0.3,0,0.5,0,0.7,0c0.2,0,0.4,0,0.5,0h0c0.1,0,0.1,0,0.2,0.1c0,0,0.1,0.1,0.1,0.1
		c0,0.1,0,0.1-0.1,0.2c0,0-0.1,0.1-0.2,0.1h-0.6c-0.3,0-0.6,0-0.9,0c-0.2,0-0.4,0-0.6,0c-0.2,0-0.3,0-0.4,0c-0.1,0-0.2,0-0.2,0
		c-0.1,0-0.1,0-0.1,0c0,0-0.1,0-0.1,0h0c-0.2,0-0.3,0-0.4-0.1c-0.1-0.1-0.1-0.2-0.1-0.3c0-0.1,0.1-0.3,0.2-0.4
		c0.1-0.1,0.2-0.3,0.4-0.5c0.2-0.2,0.3-0.4,0.5-0.6c0.2-0.2,0.4-0.4,0.5-0.7c0.2-0.2,0.4-0.5,0.5-0.7c0.2-0.2,0.3-0.4,0.4-0.6
		c0.1-0.2,0.2-0.3,0.3-0.4c0.1-0.1,0.1-0.1,0.1-0.2c0-0.1,0-0.1-0.1-0.1c-0.1,0-0.1,0-0.2,0c-0.1,0-0.2,0-0.4,0c-0.2,0-0.4,0-0.6,0
		c-0.2,0-0.4,0-0.7,0C98.2,57.9,98,57.9,97.9,57.9L97.9,57.9z"/>
	<path class="st0" d="M103.6,62.3c0,0.1,0,0.1-0.1,0.2c0,0-0.1,0.1-0.2,0.1c-0.1,0-0.1,0-0.2-0.1c0,0-0.1-0.1-0.1-0.2v0
		c0-0.4,0-0.8,0-1.2c0-0.4,0-0.8,0-1.3c0-0.4,0-0.7,0-1.1c0-0.4,0-0.7,0-1v0c0-0.1,0-0.1,0.1-0.2c0,0,0.1-0.1,0.2-0.1
		c0.1,0,0.1,0,0.2,0.1c0,0,0.1,0.1,0.1,0.2v0c0,0.3,0,0.7,0,1.1c0,0.4,0,0.8,0,1.1c0,0.4,0,0.8,0,1.2
		C103.6,61.5,103.6,61.9,103.6,62.3L103.6,62.3z"/>
	<path class="st0" d="M112.7,61.1c0,0.2,0,0.3-0.1,0.5c-0.1,0.2-0.2,0.3-0.3,0.5c-0.1,0.1-0.3,0.2-0.5,0.3c-0.2,0.1-0.4,0.1-0.7,0.2
		c-0.1,0-0.1,0-0.3,0c-0.1,0-0.2,0-0.3,0c-0.1,0-0.3,0-0.4,0c-0.1,0-0.3,0-0.4-0.1c-0.1,0-0.2-0.1-0.3-0.2c-0.1-0.1-0.1-0.2-0.1-0.4
		c0-0.1,0-0.3,0-0.6c0-0.2,0-0.5,0-0.8c0-0.2,0-0.4,0-0.6c0-0.2,0-0.4,0-0.6c0-0.2,0-0.4,0-0.5c0-0.2,0-0.3,0-0.4
		c0-0.2,0-0.3,0.1-0.4s0.2-0.2,0.3-0.2c0.1,0,0.2-0.1,0.4-0.1c0.1,0,0.3,0,0.4,0c0.1,0,0.1,0,0.2,0c0.1,0,0.1,0,0.2,0
		c0.3,0,0.5,0.1,0.7,0.1c0.2,0.1,0.3,0.2,0.4,0.3c0.1,0.1,0.2,0.2,0.2,0.4c0.1,0.1,0.1,0.3,0.1,0.4c0,0.1,0,0.2-0.1,0.4
		c0,0.1-0.1,0.2-0.2,0.3c-0.1,0.1-0.2,0.2-0.3,0.3c-0.1,0.1-0.2,0.1-0.3,0.1c-0.1,0-0.1,0-0.1,0c0,0,0,0,0,0c0,0,0,0,0,0
		c0,0,0,0,0,0c0.2,0,0.3,0.1,0.5,0.1c0.1,0.1,0.3,0.2,0.4,0.3c0.1,0.1,0.2,0.3,0.2,0.4C112.7,60.8,112.7,60.9,112.7,61.1z M111.2,60
		c-0.1,0-0.2,0-0.3,0c-0.1,0-0.2,0-0.3,0c-0.2,0-0.3,0-0.4,0c-0.1,0-0.2,0-0.2,0c0,0-0.1,0-0.1,0c0,0,0,0.1,0,0.1c0,0.3,0,0.5,0,0.7
		c0,0.2,0,0.3,0,0.4c0,0.1,0,0.2,0,0.3c0,0.1,0,0.1,0,0.1c0,0.2,0.1,0.3,0.2,0.4c0.1,0.1,0.3,0.1,0.6,0.1c0.1,0,0.2,0,0.3,0
		c0.1,0,0.2,0,0.3,0c0.2,0,0.4-0.1,0.5-0.1c0.1-0.1,0.3-0.2,0.4-0.3c0.1-0.1,0.2-0.2,0.2-0.3c0-0.1,0.1-0.3,0.1-0.4
		c0-0.1,0-0.3-0.1-0.4c0-0.1-0.1-0.2-0.2-0.3c-0.1-0.1-0.2-0.2-0.3-0.2C111.5,60,111.4,60,111.2,60z M112,58.7c0-0.1,0-0.2-0.1-0.3
		c0-0.1-0.1-0.2-0.2-0.3c-0.1-0.1-0.2-0.1-0.3-0.2c-0.1,0-0.3-0.1-0.5-0.1c0,0-0.1,0-0.1,0c-0.1,0-0.2,0-0.3,0c-0.3,0-0.5,0-0.6,0.1
		c-0.1,0.1-0.2,0.2-0.2,0.4c0,0,0,0.1,0,0.2c0,0.1,0,0.2,0,0.3c0,0.1,0,0.2,0,0.3c0,0.1,0,0.2,0,0.3c0,0,0,0.1,0,0.1c0,0,0,0,0.1,0
		c0,0,0.1,0,0.2,0c0.1,0,0.2,0,0.4,0c0.1,0,0.2,0,0.3,0s0.2,0,0.2,0c0.2,0,0.3,0,0.4-0.1c0.1-0.1,0.2-0.1,0.3-0.2
		c0.1-0.1,0.2-0.2,0.2-0.3C112,58.9,112,58.8,112,58.7z"/>
	<path class="st0" d="M118.6,57.7c0,0.3,0,0.6,0,0.8c0,0.3,0,0.5,0,0.7c0,0.2,0,0.4,0,0.6s0,0.4,0,0.6c0,0.3,0,0.6-0.1,0.9
		c-0.1,0.3-0.2,0.5-0.4,0.7c-0.2,0.2-0.4,0.3-0.6,0.4c-0.2,0.1-0.5,0.1-0.7,0.1c-0.2,0-0.5,0-0.7-0.1c-0.2-0.1-0.4-0.2-0.6-0.4
		c-0.2-0.2-0.3-0.4-0.4-0.6s-0.2-0.6-0.2-0.9v0c0-0.2,0-0.5,0-0.7c0-0.2,0-0.5,0-0.7c0-0.2,0-0.5,0-0.7c0-0.2,0-0.5,0-0.7v0
		c0-0.1,0-0.1,0.1-0.2c0,0,0.1-0.1,0.2-0.1c0.1,0,0.1,0,0.2,0.1c0,0,0.1,0.1,0.1,0.2v0c0,0.1,0,0.3,0,0.4c0,0.1,0,0.3,0,0.4
		c0,0.3,0,0.6,0,0.9c0,0.3,0,0.6,0,0.9v0.3c0,0.3,0,0.5,0.1,0.7c0.1,0.2,0.2,0.4,0.3,0.5c0.1,0.1,0.3,0.2,0.5,0.3
		c0.2,0.1,0.4,0.1,0.5,0.1c0.2,0,0.4,0,0.6-0.1c0.2-0.1,0.3-0.2,0.5-0.3c0.1-0.1,0.3-0.3,0.3-0.5c0.1-0.2,0.1-0.4,0.1-0.7
		c0-0.3,0-0.6,0-0.9c0-0.3,0-0.6,0-0.9c0-0.2,0-0.3,0-0.5c0-0.2,0-0.3,0-0.5v0c0-0.1,0-0.1,0.1-0.2c0,0,0.1-0.1,0.2-0.1
		c0.1,0,0.1,0,0.2,0.1C118.6,57.6,118.6,57.6,118.6,57.7L118.6,57.7z"/>
	<path class="st0" d="M125.3,60c0,0.4,0,0.7-0.1,1c-0.1,0.3-0.2,0.5-0.4,0.7c-0.2,0.2-0.3,0.3-0.5,0.4c-0.2,0.1-0.4,0.2-0.6,0.2
		c-0.2,0.1-0.4,0.1-0.6,0.1c-0.2,0-0.4,0-0.5,0c-0.2,0-0.4,0-0.5,0c-0.2,0-0.3-0.1-0.5-0.1c-0.1-0.1-0.2-0.1-0.3-0.3
		c-0.1-0.1-0.1-0.3-0.1-0.4c0-0.2,0-0.4,0-0.6c0-0.3,0-0.5,0-0.8c0-0.2,0-0.4,0-0.6c0-0.2,0-0.4,0-0.5c0-0.2,0-0.3,0-0.5
		c0-0.1,0-0.3,0-0.4c0-0.2,0.1-0.4,0.1-0.5c0.1-0.1,0.2-0.2,0.3-0.2c0.1-0.1,0.3-0.1,0.4-0.1c0.2,0,0.3,0,0.5,0c0.1,0,0.2,0,0.3,0
		c0.1,0,0.2,0,0.2,0c0.4,0,0.7,0.1,1,0.2c0.3,0.1,0.5,0.3,0.7,0.5c0.2,0.2,0.3,0.5,0.4,0.8C125.3,59.3,125.3,59.6,125.3,60z
		 M124.9,60c0-0.3,0-0.6-0.1-0.8c-0.1-0.3-0.2-0.5-0.4-0.7c-0.2-0.2-0.4-0.3-0.6-0.4c-0.2-0.1-0.5-0.2-0.8-0.2c0,0-0.1,0-0.1,0
		c-0.1,0-0.1,0-0.2,0c-0.2,0-0.3,0-0.5,0c-0.1,0-0.3,0-0.4,0.1c-0.1,0-0.2,0.1-0.2,0.1c-0.1,0.1-0.1,0.2-0.1,0.3c0,0.1,0,0.2,0,0.3
		c0,0.1,0,0.3,0,0.4c0,0.2,0,0.3,0,0.5c0,0.2,0,0.4,0,0.5c0,0.3,0,0.6,0,0.9c0,0.3,0,0.5,0,0.6c0,0.1,0,0.2,0.1,0.2
		c0,0.1,0.1,0.1,0.1,0.2c0.1,0,0.2,0.1,0.3,0.1c0.1,0,0.3,0,0.4,0c0.2,0,0.3,0,0.5,0c0.2,0,0.4,0,0.6-0.1c0.2,0,0.4-0.1,0.5-0.2
		c0.2-0.1,0.3-0.2,0.5-0.4c0.1-0.2,0.2-0.4,0.3-0.6C124.9,60.6,124.9,60.3,124.9,60z"/>
	<path class="st0" d="M131.7,60c0,0.4,0,0.7-0.1,1c-0.1,0.3-0.2,0.5-0.4,0.7c-0.2,0.2-0.3,0.3-0.5,0.4c-0.2,0.1-0.4,0.2-0.6,0.2
		c-0.2,0.1-0.4,0.1-0.6,0.1c-0.2,0-0.4,0-0.5,0c-0.2,0-0.4,0-0.5,0c-0.2,0-0.3-0.1-0.5-0.1c-0.1-0.1-0.2-0.1-0.3-0.3
		c-0.1-0.1-0.1-0.3-0.1-0.4c0-0.2,0-0.4,0-0.6c0-0.3,0-0.5,0-0.8c0-0.2,0-0.4,0-0.6c0-0.2,0-0.4,0-0.5c0-0.2,0-0.3,0-0.5
		c0-0.1,0-0.3,0-0.4c0-0.2,0.1-0.4,0.1-0.5c0.1-0.1,0.2-0.2,0.3-0.2c0.1-0.1,0.3-0.1,0.4-0.1c0.2,0,0.3,0,0.5,0c0.1,0,0.2,0,0.3,0
		c0.1,0,0.2,0,0.2,0c0.4,0,0.7,0.1,1,0.2c0.3,0.1,0.5,0.3,0.7,0.5c0.2,0.2,0.3,0.5,0.4,0.8C131.6,59.3,131.7,59.6,131.7,60z
		 M131.2,60c0-0.3,0-0.6-0.1-0.8c-0.1-0.3-0.2-0.5-0.4-0.7c-0.2-0.2-0.4-0.3-0.6-0.4c-0.2-0.1-0.5-0.2-0.8-0.2c0,0-0.1,0-0.1,0
		c-0.1,0-0.1,0-0.2,0c-0.2,0-0.3,0-0.5,0c-0.1,0-0.3,0-0.4,0.1c-0.1,0-0.2,0.1-0.2,0.1c-0.1,0.1-0.1,0.2-0.1,0.3c0,0.1,0,0.2,0,0.3
		c0,0.1,0,0.3,0,0.4c0,0.2,0,0.3,0,0.5c0,0.2,0,0.4,0,0.5c0,0.3,0,0.6,0,0.9c0,0.3,0,0.5,0,0.6c0,0.1,0,0.2,0.1,0.2
		c0,0.1,0.1,0.1,0.1,0.2c0.1,0,0.2,0.1,0.3,0.1c0.1,0,0.3,0,0.4,0c0.2,0,0.3,0,0.5,0c0.2,0,0.4,0,0.6-0.1c0.2,0,0.4-0.1,0.5-0.2
		c0.2-0.1,0.3-0.2,0.5-0.4c0.1-0.2,0.2-0.4,0.3-0.6C131.2,60.6,131.2,60.3,131.2,60z"/>
	<path class="st0" d="M137.6,62.3c0,0.1,0,0.1-0.1,0.2c0,0-0.1,0.1-0.2,0.1c-0.1,0-0.1,0-0.2-0.1c0,0-0.1-0.1-0.1-0.2v0
		c0-0.2,0-0.3,0-0.5c0-0.2,0-0.3,0-0.5c0-0.2,0-0.4,0-0.6c0-0.2,0-0.3,0-0.4c0-0.1,0-0.1,0-0.1c0,0-0.1,0-0.1,0c-0.1,0-0.1,0-0.2,0
		c-0.1,0-0.2,0-0.3,0c-0.1,0-0.3,0-0.4,0c-0.1,0-0.3,0-0.4,0c-0.1,0-0.3,0-0.4,0c-0.1,0-0.3,0-0.4,0c-0.1,0-0.2,0-0.3,0
		c-0.1,0-0.2,0-0.2,0c0,0-0.1,0-0.1,0c0,0,0,0.1,0,0.1c0,0.1,0,0.2,0,0.4c0,0.2,0,0.4,0,0.7c0,0.2,0,0.3,0,0.5c0,0.2,0,0.3,0,0.5v0
		c0,0.1,0,0.1-0.1,0.2c0,0-0.1,0.1-0.2,0.1c-0.1,0-0.1,0-0.2-0.1c0,0-0.1-0.1-0.1-0.2v0c0-0.4,0-0.8,0-1.2c0-0.4,0-0.9,0-1.3
		c0-0.4,0-0.7,0-1.1c0-0.3,0-0.7,0-0.9v0c0-0.1,0-0.1,0.1-0.2c0,0,0.1-0.1,0.2-0.1c0.1,0,0.1,0,0.2,0.1c0,0,0.1,0.1,0.1,0.2v0
		c0,0.1,0,0.3,0,0.4c0,0.1,0,0.3,0,0.4c0,0.2,0,0.4,0,0.6c0,0.2,0,0.3,0,0.4c0,0.1,0,0.1,0,0.1c0,0,0.1,0,0.1,0c0,0,0.1,0,0.2,0
		c0.1,0,0.2,0,0.3,0c0.1,0,0.2,0,0.4,0c0.1,0,0.3,0,0.4,0c0.1,0,0.3,0,0.4,0c0.1,0,0.3,0,0.4,0c0.1,0,0.2,0,0.4,0c0.1,0,0.2,0,0.2,0
		c0,0,0.1,0,0.1,0c0,0,0-0.1,0-0.1c0-0.1,0-0.2,0-0.4c0-0.2,0-0.4,0-0.6c0-0.1,0-0.3,0-0.4c0-0.1,0-0.3,0-0.4v0c0-0.1,0-0.1,0.1-0.2
		c0,0,0.1-0.1,0.2-0.1c0.1,0,0.1,0,0.2,0.1c0,0,0.1,0.1,0.1,0.2v0c0,0.3,0,0.6,0,1.1c0,0.4,0,0.8,0,1.3c0,0.2,0,0.4,0,0.6
		c0,0.2,0,0.4,0,0.6c0,0.2,0,0.4,0,0.5C137.6,62,137.6,62.2,137.6,62.3L137.6,62.3z"/>
	<path class="st0" d="M140.4,62.3c0,0.1,0,0.1-0.1,0.2c0,0-0.1,0.1-0.2,0.1c-0.1,0-0.1,0-0.2-0.1c0,0-0.1-0.1-0.1-0.2v0
		c0-0.4,0-0.8,0-1.2c0-0.4,0-0.8,0-1.3c0-0.4,0-0.7,0-1.1c0-0.4,0-0.7,0-1v0c0-0.1,0-0.1,0.1-0.2c0,0,0.1-0.1,0.2-0.1
		c0.1,0,0.1,0,0.2,0.1c0,0,0.1,0.1,0.1,0.2v0c0,0.3,0,0.7,0,1.1c0,0.4,0,0.8,0,1.1c0,0.4,0,0.8,0,1.2
		C140.4,61.5,140.4,61.9,140.4,62.3L140.4,62.3z"/>
	<path class="st0" d="M145.6,61.2c0,0.2,0,0.3-0.1,0.5c-0.1,0.2-0.2,0.3-0.3,0.4c-0.1,0.1-0.3,0.2-0.5,0.3c-0.2,0.1-0.4,0.1-0.7,0.1
		c-0.3,0-0.5,0-0.7-0.1c-0.2-0.1-0.4-0.2-0.5-0.3c-0.1-0.1-0.2-0.2-0.3-0.3c-0.1-0.1-0.1-0.2-0.1-0.2c0-0.1,0-0.1,0.1-0.2
		c0,0,0.1-0.1,0.2-0.1c0,0,0.1,0,0.1,0c0,0,0.1,0,0.1,0.1c0.1,0.2,0.3,0.3,0.5,0.4c0.2,0.1,0.4,0.2,0.7,0.2c0.2,0,0.3,0,0.5-0.1
		c0.1,0,0.3-0.1,0.4-0.2s0.2-0.2,0.2-0.3c0.1-0.1,0.1-0.2,0.1-0.4c0-0.2-0.1-0.3-0.2-0.5c-0.1-0.2-0.3-0.3-0.5-0.4
		c-0.2-0.1-0.4-0.2-0.5-0.3c-0.2-0.1-0.4-0.2-0.6-0.3c-0.3-0.1-0.4-0.3-0.6-0.5c-0.1-0.2-0.2-0.4-0.2-0.6c0-0.1,0-0.3,0.1-0.4
		c0.1-0.1,0.1-0.3,0.3-0.4c0.1-0.1,0.3-0.2,0.4-0.3c0.2-0.1,0.4-0.1,0.6-0.1c0.2,0,0.4,0,0.6,0.1s0.3,0.1,0.4,0.2
		c0.1,0.1,0.2,0.2,0.3,0.2c0.1,0.1,0.1,0.1,0.1,0.2c0,0.1,0,0.1-0.1,0.2c0,0-0.1,0.1-0.1,0.1c-0.1,0-0.1,0-0.2-0.1
		c-0.1-0.1-0.2-0.2-0.4-0.3c-0.2-0.1-0.4-0.1-0.6-0.1c-0.1,0-0.3,0-0.4,0.1c-0.1,0-0.2,0.1-0.3,0.2c-0.1,0.1-0.1,0.2-0.2,0.2
		c0,0.1-0.1,0.2-0.1,0.3c0,0.1,0,0.3,0.1,0.4c0.1,0.1,0.2,0.3,0.4,0.4c0.1,0,0.2,0.1,0.3,0.1c0.1,0,0.2,0.1,0.3,0.1
		c0.1,0,0.2,0.1,0.3,0.1c0.1,0,0.2,0.1,0.3,0.1c0.3,0.2,0.5,0.4,0.7,0.6C145.5,60.7,145.6,61,145.6,61.2z"/>
	<path class="st0" d="M149.2,62.3c0,0.1,0,0.1-0.1,0.2c0,0-0.1,0.1-0.2,0.1c-0.1,0-0.1,0-0.2-0.1c0,0-0.1-0.1-0.1-0.2v0
		c0-0.1,0-0.3,0-0.6c0-0.2,0-0.5,0-0.7c0-0.3,0-0.5,0-0.8c0-0.3,0-0.5,0-0.8c0-0.3,0-0.5,0-0.8c0-0.2,0-0.4,0-0.6c0,0,0,0,0-0.1
		c0,0,0,0-0.1,0c0,0-0.1,0-0.1,0c-0.1,0-0.2,0-0.3,0c-0.1,0-0.3,0-0.5,0c-0.2,0-0.4,0-0.5,0c-0.1,0-0.1,0-0.2-0.1
		c0,0-0.1-0.1-0.1-0.1c0-0.1,0-0.1,0.1-0.1c0,0,0.1-0.1,0.2-0.1h0c0.1,0,0.2,0,0.4,0c0.1,0,0.3,0,0.5,0c0.2,0,0.3,0,0.5,0
		c0.2,0,0.4,0,0.5,0c0.3,0,0.6,0,0.9,0c0.3,0,0.5,0,0.7,0h0c0.1,0,0.1,0,0.2,0.1c0,0,0,0.1,0,0.1c0,0.1,0,0.1,0,0.1
		c0,0-0.1,0.1-0.1,0.1h0c-0.1,0-0.3,0-0.4,0c-0.1,0-0.2,0-0.3,0c-0.2,0-0.3,0-0.4,0c-0.1,0-0.2,0-0.3,0c0,0-0.1,0-0.1,0s0,0,0,0.1
		c0,0.2,0,0.4,0,0.6c0,0.2,0,0.4,0,0.7c0,0.3,0,0.5,0,0.8c0,0.3,0,0.6,0,0.8c0,0.3,0,0.5,0,0.8C149.2,61.9,149.2,62.1,149.2,62.3
		L149.2,62.3z"/>
	<path class="st0" d="M156.2,62.3c0-0.1,0-0.3,0-0.5c0-0.2,0-0.5,0-0.7c0-0.3,0-0.5,0-0.8c0-0.3,0-0.5,0-0.8c0-0.3,0-0.5,0-0.7
		c0-0.2,0-0.4,0-0.5c0-0.2,0.1-0.4,0.2-0.5c0.1-0.1,0.3-0.2,0.6-0.2c0.1,0,0.2,0,0.3,0c0.2,0,0.3,0,0.5,0c0.2,0,0.4,0,0.5,0
		c0.2,0,0.3,0,0.3,0c0.1,0,0.1,0,0.2,0.1c0,0,0.1,0.1,0.1,0.1c0,0,0,0.1-0.1,0.1c0,0-0.1,0.1-0.2,0.1h0c0,0-0.1,0-0.2,0
		c-0.1,0-0.2,0-0.2,0c-0.1,0-0.2,0-0.3,0c-0.1,0-0.2,0-0.3,0c-0.1,0-0.3,0-0.4,0c-0.1,0-0.2,0-0.3,0c-0.1,0-0.3,0.1-0.3,0.1
		c-0.1,0.1-0.1,0.2-0.1,0.3c0,0,0,0.1,0,0.2c0,0.1,0,0.2,0,0.3c0,0.1,0,0.2,0,0.4c0,0.1,0,0.2,0,0.3c0,0,0,0.1,0,0.1c0,0,0,0,0.1,0
		c0,0,0.1,0,0.2,0c0.1,0,0.2,0,0.4,0c0.1,0,0.2,0,0.3,0c0.1,0,0.2,0,0.3,0c0.1,0,0.2,0,0.3,0c0.1,0,0.1,0,0.2,0c0,0,0,0,0,0
		c0,0,0,0,0.1,0c0,0,0,0,0.1,0.1c0,0,0,0.1,0,0.1c0,0.1,0,0.1-0.1,0.1c0,0-0.1,0.1-0.2,0.1h0c-0.1,0-0.2,0-0.4,0c-0.2,0-0.3,0-0.5,0
		c-0.2,0-0.4,0-0.5,0c-0.1,0-0.2,0-0.2,0c-0.1,0-0.1,0-0.1,0c0,0,0,0,0,0.1c0,0.1,0,0.2,0,0.4c0,0.2,0,0.3,0,0.5c0,0.2,0,0.4,0,0.5
		c0,0.2,0,0.3,0,0.4v0.3c0,0.1,0,0.1-0.1,0.1c0,0-0.1,0-0.2,0c-0.1,0-0.1,0-0.1,0C156.2,62.4,156.2,62.4,156.2,62.3L156.2,62.3z"/>
	<path class="st0" d="M164.7,57.7c0,0.3,0,0.6,0,0.8c0,0.3,0,0.5,0,0.7c0,0.2,0,0.4,0,0.6s0,0.4,0,0.6c0,0.3,0,0.6-0.1,0.9
		c-0.1,0.3-0.2,0.5-0.4,0.7c-0.2,0.2-0.4,0.3-0.6,0.4c-0.2,0.1-0.5,0.1-0.7,0.1c-0.2,0-0.5,0-0.7-0.1c-0.2-0.1-0.4-0.2-0.6-0.4
		c-0.2-0.2-0.3-0.4-0.4-0.6c-0.1-0.3-0.2-0.6-0.2-0.9v0c0-0.2,0-0.5,0-0.7c0-0.2,0-0.5,0-0.7c0-0.2,0-0.5,0-0.7c0-0.2,0-0.5,0-0.7v0
		c0-0.1,0-0.1,0.1-0.2c0,0,0.1-0.1,0.2-0.1c0.1,0,0.1,0,0.2,0.1c0,0,0.1,0.1,0.1,0.2v0c0,0.1,0,0.3,0,0.4c0,0.1,0,0.3,0,0.4
		c0,0.3,0,0.6,0,0.9c0,0.3,0,0.6,0,0.9v0.3c0,0.3,0,0.5,0.1,0.7c0.1,0.2,0.2,0.4,0.3,0.5c0.1,0.1,0.3,0.2,0.5,0.3
		c0.2,0.1,0.4,0.1,0.5,0.1c0.2,0,0.4,0,0.6-0.1c0.2-0.1,0.3-0.2,0.5-0.3c0.1-0.1,0.3-0.3,0.3-0.5c0.1-0.2,0.1-0.4,0.1-0.7
		c0-0.3,0-0.6,0-0.9c0-0.3,0-0.6,0-0.9c0-0.2,0-0.3,0-0.5c0-0.2,0-0.3,0-0.5v0c0-0.1,0-0.1,0.1-0.2c0,0,0.1-0.1,0.2-0.1
		c0.1,0,0.1,0,0.2,0.1C164.7,57.6,164.7,57.6,164.7,57.7L164.7,57.7z"/>
	<path class="st0" d="M171.1,62c0,0.2-0.1,0.3-0.2,0.4c-0.1,0.1-0.2,0.1-0.3,0.1c-0.1,0-0.2,0-0.2-0.1c-0.1,0-0.2-0.1-0.2-0.2
		c-0.1-0.1-0.2-0.3-0.3-0.5c-0.1-0.2-0.3-0.5-0.4-0.7c-0.2-0.3-0.3-0.6-0.5-0.8c-0.2-0.3-0.3-0.6-0.5-0.8c-0.1-0.3-0.3-0.5-0.4-0.7
		c-0.1-0.2-0.2-0.4-0.3-0.5c0,0-0.1-0.1-0.1-0.1c0,0-0.1,0-0.1,0c0,0-0.1,0-0.1,0.1c0,0.1,0,0.2,0,0.5c0,0.1,0,0.3,0,0.5
		c0,0.2,0,0.4,0,0.7c0,0.2,0,0.5,0,0.7c0,0.2,0,0.5,0,0.7c0,0.2,0,0.4,0,0.6c0,0.2,0,0.3,0,0.5v0c0,0.1,0,0.1-0.1,0.2
		c0,0-0.1,0.1-0.2,0.1c-0.1,0-0.1,0-0.2-0.1c0,0-0.1-0.1-0.1-0.2v0c0-0.3,0-0.7,0-1c0-0.4,0-0.7,0-1.1c0-0.4,0-0.8,0-1.2
		c0-0.4,0-0.7,0-1v0c0-0.2,0-0.3,0.1-0.4c0.1-0.1,0.2-0.1,0.3-0.1c0.1,0,0.2,0,0.3,0.1c0.1,0.1,0.2,0.1,0.2,0.2
		c0.1,0.1,0.2,0.3,0.3,0.5c0.1,0.2,0.3,0.4,0.4,0.7c0.1,0.3,0.3,0.5,0.5,0.8c0.2,0.3,0.3,0.6,0.5,0.8c0.1,0.3,0.3,0.5,0.4,0.7
		c0.1,0.2,0.2,0.4,0.3,0.5c0,0.1,0.1,0.1,0.1,0.1c0,0,0.1,0,0.1-0.1c0-0.1,0-0.1,0-0.2c0-0.1,0-0.3,0-0.5c0-0.2,0-0.4,0-0.7
		c0-0.3,0-0.5,0-0.8c0-0.3,0-0.5,0-0.8c0-0.3,0-0.5,0-0.7c0-0.2,0-0.4,0-0.5v0c0-0.1,0-0.1,0.1-0.2c0,0,0.1-0.1,0.2-0.1
		c0.1,0,0.1,0,0.2,0.1c0,0,0.1,0.1,0.1,0.2v0c0,0.2,0,0.4,0,0.7c0,0.2,0,0.5,0,0.8c0,0.3,0,0.5,0,0.8c0,0.3,0,0.5,0,0.8
		c0,0.3,0,0.5,0,0.7C171.1,61.7,171.1,61.9,171.1,62L171.1,62z"/>
	<path class="st0" d="M176.4,62.3c0,0.1,0,0.1-0.1,0.1c0,0-0.1,0.1-0.2,0.1c0,0-0.1,0-0.1,0c-0.1,0-0.1,0-0.2,0c-0.1,0-0.2,0-0.3,0
		c-0.1,0-0.2,0-0.3,0c-0.1,0-0.2,0-0.3,0c-0.1,0-0.2,0-0.3,0c-0.1,0-0.2,0-0.2,0c-0.1,0-0.1,0-0.1,0c-0.3,0-0.5-0.1-0.7-0.2
		c-0.1-0.1-0.2-0.3-0.2-0.5c0-0.1,0-0.3,0-0.6c0-0.2,0-0.5,0-0.8c0-0.2,0-0.4,0-0.6c0-0.2,0-0.4,0-0.6c0-0.2,0-0.4,0-0.5
		c0-0.2,0-0.3,0-0.4c0-0.2,0.1-0.4,0.2-0.5c0.1-0.1,0.3-0.2,0.6-0.2c0,0,0.1,0,0.1,0c0.1,0,0.1,0,0.2,0c0.1,0,0.2,0,0.3,0
		c0.1,0,0.2,0,0.3,0c0.2,0,0.4,0,0.5,0c0.2,0,0.3,0,0.3,0c0.1,0,0.1,0,0.2,0.1c0,0,0.1,0.1,0.1,0.1c0,0,0,0.1-0.1,0.1
		c0,0-0.1,0.1-0.2,0.1c0,0-0.1,0-0.1,0c-0.1,0-0.2,0-0.3,0c-0.1,0-0.2,0-0.4,0c-0.1,0-0.3,0-0.4,0c-0.2,0-0.3,0-0.4,0
		c-0.1,0-0.2,0-0.3,0c-0.1,0-0.1,0.1-0.2,0.1c0,0.1-0.1,0.1-0.1,0.2c0,0,0,0.1,0,0.2c0,0.1,0,0.2,0,0.3c0,0.1,0,0.2,0,0.3
		c0,0.1,0,0.2,0,0.3c0,0.1,0,0.1,0,0.1c0,0,0.1,0,0.1,0c0.1,0,0.2,0,0.3,0c0.2,0,0.3,0,0.5,0c0.2,0,0.3,0,0.5,0c0.2,0,0.3,0,0.3,0
		c0.1,0,0.1,0,0.1,0c0,0,0.1,0,0.1,0.1c0,0,0,0,0,0.1c0,0,0,0,0,0.1c0,0.1,0,0.1-0.1,0.1c0,0-0.1,0.1-0.2,0.1h0c-0.1,0-0.2,0-0.4,0
		s-0.4,0-0.5,0c-0.2,0-0.4,0-0.5,0c-0.1,0-0.2,0-0.3,0c-0.1,0-0.1,0-0.1,0c0,0,0,0,0,0.1c0,0.3,0,0.5,0,0.7c0,0.2,0,0.3,0,0.4
		c0,0.1,0,0.2,0,0.3c0,0.1,0,0.1,0,0.2c0,0.1,0.1,0.2,0.1,0.3c0.1,0.1,0.2,0.1,0.4,0.1c0.1,0,0.2,0,0.3,0c0.2,0,0.3,0,0.5,0
		c0.2,0,0.4,0,0.5,0c0.2,0,0.3,0,0.3,0h0c0.1,0,0.1,0,0.2,0.1C176.4,62.2,176.4,62.2,176.4,62.3z"/>
	<path class="st0" d="M180.3,60C180.2,60,180.2,60,180.3,60c-0.1,0.1,0,0.1,0,0.1c0.1,0.1,0.2,0.2,0.3,0.3c0.1,0.1,0.2,0.2,0.2,0.4
		c0.1,0.1,0.2,0.2,0.2,0.4c0.1,0.1,0.1,0.2,0.2,0.4c0.1,0.2,0.2,0.3,0.3,0.4c0.1,0.1,0.2,0.2,0.4,0.2c0.1,0,0.1,0,0.2,0.1
		c0,0,0.1,0.1,0.1,0.1c0,0.1,0,0.1-0.1,0.2c0,0-0.1,0.1-0.2,0.1c0,0-0.1,0-0.2,0c-0.1,0-0.2-0.1-0.2-0.1c-0.1-0.1-0.2-0.1-0.3-0.2
		c-0.1-0.1-0.2-0.2-0.3-0.4c-0.1-0.1-0.2-0.3-0.3-0.5c-0.1-0.2-0.2-0.4-0.3-0.5s-0.2-0.3-0.4-0.5c-0.1-0.1-0.3-0.2-0.4-0.2
		c-0.1,0-0.1,0-0.3,0c-0.1,0-0.2,0-0.3,0c-0.1,0-0.2,0-0.2,0c0,0,0,0.1,0,0.1c0,0.1,0,0.2,0,0.3c0,0.1,0,0.3,0,0.4
		c0,0.1,0,0.3,0,0.4c0,0.1,0,0.3,0,0.4c0,0.1,0,0.2,0,0.3c0,0.1,0,0.2,0,0.2c0,0.1,0,0.1-0.1,0.2c0,0-0.1,0.1-0.2,0.1
		c-0.1,0-0.1,0-0.1,0c0,0-0.1-0.1-0.1-0.2c0-0.3,0-0.7,0-1.1c0-0.4,0-0.8,0-1.2c0-0.4,0-0.7,0-1.1c0-0.3,0-0.6,0-0.8
		c0-0.2,0-0.3,0.1-0.4c0.1-0.1,0.2-0.2,0.3-0.2c0.1,0,0.3-0.1,0.4-0.1c0.1,0,0.3,0,0.4,0c0.1,0,0.1,0,0.2,0c0.1,0,0.1,0,0.2,0
		c0.3,0,0.5,0.1,0.7,0.1c0.2,0.1,0.3,0.2,0.4,0.3c0.1,0.1,0.2,0.2,0.3,0.4c0.1,0.1,0.1,0.3,0.1,0.4c0,0.1,0,0.3-0.1,0.4
		c-0.1,0.1-0.1,0.3-0.2,0.4c-0.1,0.1-0.2,0.2-0.4,0.3C180.6,59.9,180.4,60,180.3,60z M181,58.7c0-0.1,0-0.2-0.1-0.3
		c0-0.1-0.1-0.2-0.2-0.3c-0.1-0.1-0.2-0.2-0.3-0.2c-0.1-0.1-0.3-0.1-0.5-0.1c-0.1,0-0.1,0-0.2,0c-0.1,0-0.1,0-0.2,0
		c-0.3,0-0.4,0-0.6,0.1c-0.1,0.1-0.2,0.2-0.2,0.4c0,0,0,0.1,0,0.2c0,0.1,0,0.2,0,0.3c0,0.1,0,0.3,0,0.4c0,0.1,0,0.2,0,0.4
		c0,0,0,0,0,0.1c0,0,0,0,0.1,0s0.1,0,0.2,0c0.1,0,0.2,0,0.3,0c0.1,0,0.2,0,0.3,0c0.1,0,0.2,0,0.3,0c0.2,0,0.3-0.1,0.4-0.1
		c0.1-0.1,0.2-0.1,0.3-0.2c0.1-0.1,0.2-0.2,0.2-0.3C181,58.9,181,58.8,181,58.7z"/>
	<path class="st0" d="M187.5,62.3c0,0.1,0,0.1-0.1,0.2c0,0-0.1,0.1-0.2,0.1c0,0-0.1,0-0.1,0c0,0-0.1-0.1-0.1-0.1c0,0,0-0.1-0.1-0.2
		c0-0.1-0.1-0.2-0.1-0.4c-0.1-0.1-0.1-0.3-0.2-0.5c-0.1-0.2-0.1-0.3-0.2-0.5c0,0,0,0,0-0.1c0,0,0,0-0.1,0c-0.1,0-0.2,0-0.3,0
		c-0.1,0-0.3,0-0.5,0c-0.1,0-0.2,0-0.4,0c-0.1,0-0.2,0-0.3,0s-0.2,0-0.3,0c-0.1,0-0.1,0-0.2,0c0,0-0.1,0-0.1,0c0,0,0,0,0,0.1
		c0,0.1-0.1,0.3-0.1,0.4c0,0.1-0.1,0.3-0.1,0.4c0,0.1-0.1,0.3-0.1,0.4c0,0.1-0.1,0.2-0.1,0.3c0,0.1,0,0.1-0.1,0.1c0,0-0.1,0-0.1,0
		c-0.1,0-0.1,0-0.1,0c0,0-0.1-0.1-0.1-0.1c0,0,0,0,0-0.1c0.1-0.2,0.1-0.4,0.2-0.7c0.1-0.3,0.2-0.5,0.3-0.8c0.1-0.3,0.2-0.6,0.3-0.8
		c0.1-0.3,0.2-0.5,0.3-0.8c0.1-0.3,0.2-0.5,0.3-0.7c0.1-0.2,0.1-0.4,0.2-0.6c0-0.1,0.1-0.2,0.2-0.3c0.1-0.1,0.2-0.1,0.3-0.1
		c0.1,0,0.2,0,0.3,0.1c0.1,0.1,0.2,0.2,0.2,0.3c0.1,0.2,0.2,0.5,0.3,0.7c0.1,0.3,0.2,0.6,0.3,0.8c0.1,0.3,0.2,0.6,0.3,0.9
		c0.1,0.3,0.2,0.6,0.3,0.8c0.1,0.3,0.2,0.5,0.2,0.7C187.4,62,187.4,62.1,187.5,62.3C187.5,62.2,187.5,62.3,187.5,62.3z M186.3,60.3
		C186.3,60.3,186.3,60.3,186.3,60.3c-0.1-0.2-0.1-0.4-0.2-0.6c-0.1-0.2-0.2-0.4-0.2-0.6c-0.1-0.2-0.1-0.4-0.2-0.6
		c-0.1-0.2-0.1-0.3-0.1-0.4c0-0.1-0.1-0.2-0.1-0.2c-0.1,0-0.1,0.1-0.1,0.2c0,0.1-0.1,0.2-0.1,0.3c0,0.1-0.1,0.3-0.2,0.4
		c-0.1,0.2-0.1,0.3-0.2,0.5c-0.1,0.2-0.1,0.3-0.2,0.5c0,0.1-0.1,0.3-0.1,0.4c0,0.1,0,0.1,0,0.2c0,0,0,0,0.1,0c0.1,0,0.2,0,0.3,0
		c0.2,0,0.3,0,0.5,0c0.2,0,0.4,0,0.5,0C186.1,60.3,186.2,60.3,186.3,60.3C186.3,60.3,186.3,60.3,186.3,60.3z"/>
	<path class="st0" d="M192.4,62.3c0,0.1,0,0.1-0.1,0.1c0,0-0.1,0.1-0.2,0.1c0,0-0.1,0-0.1,0c-0.1,0-0.1,0-0.2,0c-0.1,0-0.2,0-0.3,0
		s-0.2,0-0.3,0s-0.2,0-0.3,0c-0.1,0-0.2,0-0.3,0c-0.1,0-0.2,0-0.2,0c-0.1,0-0.1,0-0.1,0c-0.3,0-0.5-0.1-0.7-0.2
		c-0.1-0.1-0.2-0.3-0.2-0.5c0-0.1,0-0.2,0-0.3c0-0.1,0-0.2,0-0.4c0-0.2,0-0.5,0-0.8c0-0.3,0-0.6,0-0.9c0-0.3,0-0.6,0-0.8
		c0-0.3,0-0.5,0-0.7v-0.1c0-0.1,0-0.1,0.1-0.2c0,0,0.1-0.1,0.2-0.1c0.1,0,0.1,0,0.2,0.1c0,0,0.1,0.1,0.1,0.2v0c0,0.1,0,0.3,0,0.5
		c0,0.2,0,0.5,0,0.7c0,0.3,0,0.6,0,0.8c0,0.3,0,0.6,0,0.8c0,0.2,0,0.5,0,0.6c0,0.2,0,0.3,0,0.4c0,0.1,0,0.2,0.1,0.2
		c0,0.1,0.1,0.1,0.2,0.1c0.1,0,0.2,0,0.4,0.1c0.2,0,0.4,0,0.6,0c0.1,0,0.2,0,0.3,0s0.2,0,0.3,0c0.1,0,0.2,0,0.2,0c0.1,0,0.1,0,0.2,0
		h0c0.1,0,0.1,0,0.2,0.1C192.4,62.2,192.4,62.2,192.4,62.3z"/>
	<path class="st0" d="M200.3,61.2c0,0.2,0,0.3-0.1,0.5c-0.1,0.2-0.2,0.3-0.3,0.4c-0.1,0.1-0.3,0.2-0.5,0.3c-0.2,0.1-0.4,0.1-0.7,0.1
		c-0.3,0-0.5,0-0.7-0.1c-0.2-0.1-0.4-0.2-0.5-0.3c-0.1-0.1-0.2-0.2-0.3-0.3c-0.1-0.1-0.1-0.2-0.1-0.2c0-0.1,0-0.1,0.1-0.2
		c0,0,0.1-0.1,0.2-0.1c0,0,0.1,0,0.1,0c0,0,0.1,0,0.1,0.1c0.1,0.2,0.3,0.3,0.5,0.4c0.2,0.1,0.4,0.2,0.7,0.2c0.2,0,0.3,0,0.5-0.1
		c0.1,0,0.3-0.1,0.4-0.2s0.2-0.2,0.2-0.3c0.1-0.1,0.1-0.2,0.1-0.4c0-0.2-0.1-0.3-0.2-0.5c-0.1-0.2-0.3-0.3-0.5-0.4
		c-0.2-0.1-0.4-0.2-0.5-0.3c-0.2-0.1-0.4-0.2-0.6-0.3c-0.3-0.1-0.4-0.3-0.6-0.5c-0.1-0.2-0.2-0.4-0.2-0.6c0-0.1,0-0.3,0.1-0.4
		c0.1-0.1,0.1-0.3,0.3-0.4c0.1-0.1,0.3-0.2,0.4-0.3c0.2-0.1,0.4-0.1,0.6-0.1c0.2,0,0.4,0,0.6,0.1c0.2,0.1,0.3,0.1,0.4,0.2
		c0.1,0.1,0.2,0.2,0.3,0.2c0.1,0.1,0.1,0.1,0.1,0.2c0,0.1,0,0.1-0.1,0.2c0,0-0.1,0.1-0.1,0.1c-0.1,0-0.1,0-0.2-0.1
		c-0.1-0.1-0.2-0.2-0.4-0.3c-0.2-0.1-0.4-0.1-0.6-0.1c-0.1,0-0.3,0-0.4,0.1c-0.1,0-0.2,0.1-0.3,0.2c-0.1,0.1-0.1,0.2-0.2,0.2
		c0,0.1-0.1,0.2-0.1,0.3c0,0.1,0,0.3,0.1,0.4c0.1,0.1,0.2,0.3,0.4,0.4c0.1,0,0.2,0.1,0.3,0.1c0.1,0,0.2,0.1,0.3,0.1
		c0.1,0,0.2,0.1,0.3,0.1c0.1,0,0.2,0.1,0.3,0.1c0.3,0.2,0.5,0.4,0.7,0.6C200.3,60.7,200.3,61,200.3,61.2z"/>
	<path class="st0" d="M205.3,62.3c0,0.1,0,0.1-0.1,0.1c0,0-0.1,0.1-0.2,0.1c0,0-0.1,0-0.1,0c-0.1,0-0.1,0-0.2,0c-0.1,0-0.2,0-0.3,0
		c-0.1,0-0.2,0-0.3,0c-0.1,0-0.2,0-0.3,0c-0.1,0-0.2,0-0.3,0c-0.1,0-0.2,0-0.2,0c-0.1,0-0.1,0-0.1,0c-0.3,0-0.5-0.1-0.7-0.2
		c-0.1-0.1-0.2-0.3-0.2-0.5c0-0.1,0-0.3,0-0.6c0-0.2,0-0.5,0-0.8c0-0.2,0-0.4,0-0.6c0-0.2,0-0.4,0-0.6c0-0.2,0-0.4,0-0.5
		c0-0.2,0-0.3,0-0.4c0-0.2,0.1-0.4,0.2-0.5c0.1-0.1,0.3-0.2,0.6-0.2c0,0,0.1,0,0.1,0c0.1,0,0.1,0,0.2,0c0.1,0,0.2,0,0.3,0
		c0.1,0,0.2,0,0.3,0c0.2,0,0.4,0,0.5,0c0.2,0,0.3,0,0.3,0c0.1,0,0.1,0,0.2,0.1c0,0,0.1,0.1,0.1,0.1c0,0,0,0.1-0.1,0.1
		c0,0-0.1,0.1-0.2,0.1c0,0-0.1,0-0.1,0c-0.1,0-0.2,0-0.3,0c-0.1,0-0.2,0-0.4,0c-0.1,0-0.3,0-0.4,0c-0.2,0-0.3,0-0.4,0
		c-0.1,0-0.2,0-0.3,0c-0.1,0-0.1,0.1-0.2,0.1c0,0.1-0.1,0.1-0.1,0.2c0,0,0,0.1,0,0.2c0,0.1,0,0.2,0,0.3c0,0.1,0,0.2,0,0.3
		c0,0.1,0,0.2,0,0.3c0,0.1,0,0.1,0,0.1c0,0,0.1,0,0.1,0c0.1,0,0.2,0,0.3,0c0.2,0,0.3,0,0.5,0c0.2,0,0.3,0,0.5,0c0.2,0,0.3,0,0.3,0
		c0.1,0,0.1,0,0.1,0c0,0,0.1,0,0.1,0.1c0,0,0,0,0,0.1c0,0,0,0,0,0.1c0,0.1,0,0.1-0.1,0.1c0,0-0.1,0.1-0.2,0.1h0c-0.1,0-0.2,0-0.4,0
		c-0.2,0-0.4,0-0.5,0c-0.2,0-0.4,0-0.5,0c-0.1,0-0.2,0-0.3,0c-0.1,0-0.1,0-0.1,0c0,0,0,0,0,0.1c0,0.3,0,0.5,0,0.7c0,0.2,0,0.3,0,0.4
		c0,0.1,0,0.2,0,0.3c0,0.1,0,0.1,0,0.2c0,0.1,0.1,0.2,0.1,0.3c0.1,0.1,0.2,0.1,0.4,0.1c0.1,0,0.2,0,0.3,0s0.3,0,0.5,0
		c0.2,0,0.4,0,0.5,0c0.2,0,0.3,0,0.3,0h0c0.1,0,0.1,0,0.2,0.1C205.3,62.2,205.3,62.2,205.3,62.3z"/>
	<path class="st0" d="M209.1,60C209.1,60,209.1,60,209.1,60c-0.1,0.1,0,0.1,0,0.1c0.1,0.1,0.2,0.2,0.3,0.3c0.1,0.1,0.2,0.2,0.2,0.4
		c0.1,0.1,0.2,0.2,0.2,0.4c0.1,0.1,0.1,0.2,0.2,0.4c0.1,0.2,0.2,0.3,0.3,0.4c0.1,0.1,0.2,0.2,0.4,0.2c0.1,0,0.1,0,0.2,0.1
		c0,0,0.1,0.1,0.1,0.1c0,0.1,0,0.1-0.1,0.2c0,0-0.1,0.1-0.2,0.1c0,0-0.1,0-0.2,0c-0.1,0-0.2-0.1-0.2-0.1c-0.1-0.1-0.2-0.1-0.3-0.2
		c-0.1-0.1-0.2-0.2-0.3-0.4c-0.1-0.1-0.2-0.3-0.3-0.5c-0.1-0.2-0.2-0.4-0.3-0.5s-0.2-0.3-0.4-0.5c-0.1-0.1-0.3-0.2-0.4-0.2
		c-0.1,0-0.1,0-0.3,0c-0.1,0-0.2,0-0.3,0c-0.1,0-0.2,0-0.2,0c0,0,0,0.1,0,0.1c0,0.1,0,0.2,0,0.3c0,0.1,0,0.3,0,0.4
		c0,0.1,0,0.3,0,0.4c0,0.1,0,0.3,0,0.4c0,0.1,0,0.2,0,0.3c0,0.1,0,0.2,0,0.2c0,0.1,0,0.1-0.1,0.2c0,0-0.1,0.1-0.2,0.1
		c-0.1,0-0.1,0-0.1,0c0,0-0.1-0.1-0.1-0.2c0-0.3,0-0.7,0-1.1c0-0.4,0-0.8,0-1.2c0-0.4,0-0.7,0-1.1c0-0.3,0-0.6,0-0.8
		c0-0.2,0-0.3,0.1-0.4c0.1-0.1,0.2-0.2,0.3-0.2c0.1,0,0.3-0.1,0.4-0.1c0.1,0,0.3,0,0.4,0c0.1,0,0.1,0,0.2,0c0.1,0,0.1,0,0.2,0
		c0.3,0,0.5,0.1,0.7,0.1c0.2,0.1,0.3,0.2,0.4,0.3c0.1,0.1,0.2,0.2,0.3,0.4c0.1,0.1,0.1,0.3,0.1,0.4c0,0.1,0,0.3-0.1,0.4
		c-0.1,0.1-0.1,0.3-0.2,0.4c-0.1,0.1-0.2,0.2-0.4,0.3C209.5,59.9,209.3,60,209.1,60z M209.8,58.7c0-0.1,0-0.2-0.1-0.3
		c0-0.1-0.1-0.2-0.2-0.3c-0.1-0.1-0.2-0.2-0.3-0.2c-0.1-0.1-0.3-0.1-0.5-0.1c-0.1,0-0.1,0-0.2,0c-0.1,0-0.1,0-0.2,0
		c-0.3,0-0.4,0-0.6,0.1c-0.1,0.1-0.2,0.2-0.2,0.4c0,0,0,0.1,0,0.2c0,0.1,0,0.2,0,0.3c0,0.1,0,0.3,0,0.4c0,0.1,0,0.2,0,0.4
		c0,0,0,0,0,0.1c0,0,0,0,0.1,0s0.1,0,0.2,0c0.1,0,0.2,0,0.3,0c0.1,0,0.2,0,0.3,0c0.1,0,0.2,0,0.3,0c0.2,0,0.3-0.1,0.4-0.1
		c0.1-0.1,0.2-0.1,0.3-0.2c0.1-0.1,0.2-0.2,0.2-0.3C209.8,58.9,209.8,58.8,209.8,58.7z"/>
	<path class="st0" d="M214.6,62.2c0,0.1-0.1,0.2-0.2,0.3c-0.1,0.1-0.2,0.1-0.3,0.1c-0.1,0-0.2,0-0.3-0.1c-0.1-0.1-0.2-0.2-0.2-0.3
		c-0.1-0.2-0.2-0.4-0.2-0.7c-0.1-0.3-0.2-0.6-0.3-0.9c-0.1-0.3-0.2-0.6-0.3-1c-0.1-0.3-0.2-0.6-0.3-0.9c-0.1-0.3-0.1-0.5-0.2-0.6
		c0-0.2-0.1-0.3-0.1-0.3c0-0.1,0-0.1,0.1-0.2c0,0,0.1-0.1,0.2-0.1c0.1,0,0.1,0,0.1,0c0,0,0.1,0.1,0.1,0.1c0,0.1,0.1,0.3,0.2,0.5
		c0.1,0.2,0.1,0.5,0.2,0.7c0.1,0.3,0.2,0.5,0.3,0.8c0.1,0.3,0.2,0.6,0.3,0.8c0.1,0.3,0.2,0.5,0.2,0.7c0.1,0.2,0.1,0.4,0.2,0.6
		c0,0.1,0.1,0.2,0.2,0.2c0.1,0,0.1-0.1,0.2-0.2c0-0.1,0.1-0.3,0.2-0.5c0.1-0.2,0.1-0.4,0.2-0.7c0.1-0.3,0.2-0.5,0.3-0.8
		c0.1-0.3,0.2-0.6,0.3-0.8c0.1-0.3,0.2-0.5,0.2-0.8c0.1-0.2,0.1-0.4,0.2-0.6c0-0.1,0-0.1,0.1-0.1c0,0,0.1,0,0.1,0
		c0.1,0,0.1,0,0.2,0.1s0.1,0.1,0.1,0.2c0,0,0,0.1,0,0.2c0,0.1-0.1,0.2-0.1,0.4c-0.1,0.2-0.1,0.4-0.2,0.6c-0.1,0.2-0.1,0.5-0.2,0.7
		c-0.1,0.2-0.2,0.5-0.2,0.8c-0.1,0.3-0.2,0.5-0.2,0.7c-0.1,0.2-0.1,0.4-0.2,0.6C214.7,61.9,214.6,62,214.6,62.2z"/>
	<path class="st0" d="M218.5,62.3c0,0.1,0,0.1-0.1,0.2c0,0-0.1,0.1-0.2,0.1c-0.1,0-0.1,0-0.2-0.1c0,0-0.1-0.1-0.1-0.2v0
		c0-0.4,0-0.8,0-1.2c0-0.4,0-0.8,0-1.3c0-0.4,0-0.7,0-1.1c0-0.4,0-0.7,0-1v0c0-0.1,0-0.1,0.1-0.2c0,0,0.1-0.1,0.2-0.1
		c0.1,0,0.1,0,0.2,0.1c0,0,0.1,0.1,0.1,0.2v0c0,0.3,0,0.7,0,1.1c0,0.4,0,0.8,0,1.1c0,0.4,0,0.8,0,1.2
		C218.5,61.5,218.5,61.9,218.5,62.3L218.5,62.3z"/>
	<path class="st0" d="M225.2,61.5c0,0.1,0,0.2-0.1,0.3c-0.1,0.1-0.2,0.2-0.4,0.3c-0.2,0.1-0.4,0.2-0.6,0.3c-0.2,0.1-0.5,0.1-0.8,0.1
		c-0.4,0-0.8-0.1-1.1-0.2c-0.3-0.1-0.6-0.3-0.8-0.6c-0.2-0.2-0.4-0.5-0.5-0.8c-0.1-0.3-0.2-0.6-0.2-0.9c0-0.3,0.1-0.6,0.2-0.9
		c0.1-0.3,0.3-0.6,0.5-0.8c0.2-0.2,0.5-0.4,0.8-0.6c0.3-0.1,0.7-0.2,1.1-0.2c0.3,0,0.5,0,0.7,0.1c0.2,0.1,0.4,0.1,0.5,0.2
		c0.2,0.1,0.3,0.2,0.4,0.3c0.1,0.1,0.1,0.2,0.1,0.2c0,0.1,0,0.1-0.1,0.2c0,0-0.1,0.1-0.2,0.1c0,0-0.1,0-0.1,0c0,0-0.1,0-0.1-0.1
		c-0.2-0.2-0.4-0.4-0.6-0.5c-0.2-0.1-0.5-0.1-0.7-0.1c-0.3,0-0.6,0.1-0.9,0.2c-0.3,0.1-0.5,0.3-0.6,0.5c-0.2,0.2-0.3,0.4-0.4,0.7
		c-0.1,0.3-0.1,0.5-0.1,0.8c0,0.3,0,0.5,0.1,0.8c0.1,0.3,0.2,0.5,0.4,0.7c0.2,0.2,0.4,0.4,0.6,0.5c0.3,0.1,0.5,0.2,0.9,0.2
		c0.3,0,0.6-0.1,0.9-0.2c0.3-0.1,0.5-0.3,0.7-0.5c0.1-0.1,0.1-0.1,0.2-0.1c0.1,0,0.1,0,0.2,0.1C225.1,61.4,225.2,61.5,225.2,61.5z"
		/>
	<path class="st0" d="M230.1,62.3c0,0.1,0,0.1-0.1,0.1c0,0-0.1,0.1-0.2,0.1c0,0-0.1,0-0.1,0c-0.1,0-0.1,0-0.2,0s-0.2,0-0.3,0
		c-0.1,0-0.2,0-0.3,0c-0.1,0-0.2,0-0.3,0c-0.1,0-0.2,0-0.3,0c-0.1,0-0.2,0-0.2,0c-0.1,0-0.1,0-0.1,0c-0.3,0-0.5-0.1-0.7-0.2
		c-0.1-0.1-0.2-0.3-0.2-0.5c0-0.1,0-0.3,0-0.6c0-0.2,0-0.5,0-0.8c0-0.2,0-0.4,0-0.6c0-0.2,0-0.4,0-0.6c0-0.2,0-0.4,0-0.5
		c0-0.2,0-0.3,0-0.4c0-0.2,0.1-0.4,0.2-0.5c0.1-0.1,0.3-0.2,0.6-0.2c0,0,0.1,0,0.1,0c0.1,0,0.1,0,0.2,0c0.1,0,0.2,0,0.3,0
		c0.1,0,0.2,0,0.3,0c0.2,0,0.4,0,0.5,0c0.2,0,0.3,0,0.3,0c0.1,0,0.1,0,0.2,0.1c0,0,0.1,0.1,0.1,0.1c0,0,0,0.1-0.1,0.1
		c0,0-0.1,0.1-0.2,0.1c0,0-0.1,0-0.1,0c-0.1,0-0.2,0-0.3,0c-0.1,0-0.2,0-0.4,0c-0.1,0-0.3,0-0.4,0c-0.2,0-0.3,0-0.4,0
		c-0.1,0-0.2,0-0.3,0c-0.1,0-0.1,0.1-0.2,0.1c0,0.1-0.1,0.1-0.1,0.2c0,0,0,0.1,0,0.2c0,0.1,0,0.2,0,0.3c0,0.1,0,0.2,0,0.3
		c0,0.1,0,0.2,0,0.3c0,0.1,0,0.1,0,0.1c0,0,0.1,0,0.1,0c0.1,0,0.2,0,0.3,0c0.2,0,0.3,0,0.5,0c0.2,0,0.3,0,0.5,0s0.3,0,0.3,0
		c0.1,0,0.1,0,0.1,0c0,0,0.1,0,0.1,0.1c0,0,0,0,0,0.1c0,0,0,0,0,0.1c0,0.1,0,0.1-0.1,0.1c0,0-0.1,0.1-0.2,0.1h0c-0.1,0-0.2,0-0.4,0
		c-0.2,0-0.4,0-0.5,0c-0.2,0-0.4,0-0.5,0c-0.1,0-0.2,0-0.3,0c-0.1,0-0.1,0-0.1,0c0,0,0,0,0,0.1c0,0.3,0,0.5,0,0.7c0,0.2,0,0.3,0,0.4
		c0,0.1,0,0.2,0,0.3c0,0.1,0,0.1,0,0.2c0,0.1,0.1,0.2,0.1,0.3c0.1,0.1,0.2,0.1,0.4,0.1c0.1,0,0.2,0,0.3,0s0.3,0,0.5,0
		c0.2,0,0.4,0,0.5,0c0.2,0,0.3,0,0.3,0h0c0.1,0,0.1,0,0.2,0.1C230,62.2,230.1,62.2,230.1,62.3z"/>
</g>
<g>
	<g>
		<g>
			<path class="st0" d="M78.2,41.1c-0.8,1.8-1.9,3.6-2.8,4.8c-0.2,0.2-0.4,0.3-0.6,0.3c-0.3,0-0.6-0.3-0.6-0.6c0-0.1,0-0.3,0.2-0.5
				c1.1-1.3,3-4.1,3.9-6.5v-0.7l-2.8,0c-0.4,0-0.6-0.3-0.6-0.6c0-0.3,0.2-0.6,0.6-0.6h2.8l-0.1-4.7c0-0.4,0.3-0.6,0.7-0.6
				c0.3,0,0.6,0.2,0.6,0.6c0,0,0,2.5,0,4.7h2.4c0.4,0,0.6,0.3,0.6,0.6c0,0.3-0.2,0.6-0.6,0.6l-2.5,0v2.7c0.1-0.1,0.3-0.2,0.4-0.2
				c0.3,0,2.5,1.6,2.5,2.3c0,0.3-0.3,0.6-0.6,0.6c-0.1,0-0.3-0.1-0.4-0.2c-0.5-0.7-1.3-1.5-1.9-1.9l0,0c0,3,0.1,10.8,0.1,10.8
				c0,0.4-0.3,0.6-0.6,0.6c-0.3,0-0.7-0.2-0.7-0.6L78.2,41.1z M87.1,42.3c-0.4,0.7-0.8,1.3-1.3,1.9c2,0,4.9,0,6.9,0
				c1.3,0,2.2,0.7,2.2,2.2c0,1-0.3,3-0.7,3.9c-0.6,1.5-1.7,2.2-3.2,2.2c-1.2,0-1.8-0.2-1.8-0.8c0-0.3,0.2-0.6,0.6-0.6
				c0,0,0.1,0,0.2,0c0.4,0.1,0.8,0.2,1.2,0.2c0.9,0,1.6-0.4,2-1.4c0.4-0.9,0.6-3,0.6-3.4c0-0.8-0.4-1.2-1.3-1.2h-0.3
				c-1.7,5-5.3,7.6-6.1,7.6c-0.4,0-0.6-0.3-0.6-0.6c0-0.2,0.1-0.4,0.3-0.5c2.4-1.3,4.1-3.5,5.2-6.5h-2.4c-2.2,4.6-6.1,6.5-6.6,6.5
				c-0.3,0-0.6-0.3-0.6-0.6c0-0.2,0.1-0.4,0.4-0.5c2.5-1.2,4.4-2.9,5.6-5.5c-0.8,0-1.6,0-2.2,0c-1.6,1.8-3.4,3.2-3.9,3.2
				c-0.3,0-0.6-0.3-0.6-0.6c0-0.2,0.1-0.4,0.3-0.5c2.2-1.4,3.6-2.8,4.9-4.9l-3,0c-0.3,0-0.5-0.3-0.5-0.5c0-0.3,0.2-0.5,0.5-0.5h12.4
				c0.4,0,0.5,0.3,0.5,0.5c0,0.3-0.2,0.5-0.5,0.5L87.1,42.3z M88.4,39.5c-2.8,0-4.4,0-4.5-1.9c0-0.5,0-1,0-1.5c0-0.8,0-1.5,0-2.2
				c0-1,0.8-1.8,2.2-1.9c0.7,0,1.5,0,2.3,0c0.8,0,1.6,0,2.3,0c1.3,0,2.1,0.8,2.2,1.7c0,0.7,0.1,1.5,0.1,2.3
				C93,39.2,93,39.5,88.4,39.5z M91.8,35.2c0-2.1,0-2.2-2.9-2.2c-0.9,0-1.8,0-2.5,0c-1.3,0-1.3,0.7-1.3,2.1H91.8z M85.1,36.2v0.9
				c0,1.4,0.3,1.4,3.2,1.4c3.2,0,3.5-0.1,3.5-1.1c0-0.3,0-0.7,0-1.2H85.1z"/>
			<path class="st0" d="M131.4,52l0.3-13.2c-0.5,0.8-2.4,3.6-3.3,3.6c-0.3,0-0.6-0.3-0.6-0.6c0-0.1,0.1-0.3,0.2-0.5
				c2.4-2.3,4.6-5.7,5.7-9.2c0.1-0.3,0.3-0.5,0.6-0.5c0.4,0,0.8,0.3,0.8,0.7c0,0.4-1,2.6-2.1,4.4L132.8,52c0,0.4-0.4,0.6-0.7,0.6
				C131.7,52.6,131.4,52.4,131.4,52L131.4,52z M143.3,44h-2.8c-0.4,3.9-2.1,6.3-4.8,8.2c-0.2,0.1-0.4,0.2-0.5,0.2
				c-0.4,0-0.7-0.3-0.7-0.6c0-0.2,0.1-0.4,0.3-0.5c2.7-1.8,4.1-3.9,4.4-7.1h-2.4c-1.1,0-1.6-0.5-1.6-1.2c0-0.1,0-0.2,0-0.4
				c0.5-3.2,0.7-3.5,2.3-3.5h1.9v-3c-1.3,0-2.5,0-3.3,0c-0.4,0-0.6-0.3-0.6-0.6c0-0.3,0.2-0.6,0.6-0.6c0.8,0,1.9,0,3.2,0
				c0-0.9,0-1.7,0-2.3v0c0-0.4,0.3-0.6,0.6-0.6c0.3,0,0.7,0.2,0.7,0.7c0,0.5,0,1.3,0,2.2h2.6v-2.4c0-0.4,0.3-0.6,0.6-0.6
				s0.6,0.2,0.6,0.6v2.4h1.9c1.4,0,2,0.6,2,1.5v1.4c0,1.2,0,2.2-2.1,2.2h-1.9v3c1.1,0,2.2,0,2.7,0c1.4,0,2,0.5,2,1.9
				c0,0.6-0.2,2.3-0.4,2.9c-0.4,1.1-1.1,1.6-2.2,1.6c-1.3,0-1.5-0.4-1.5-0.7c0-0.3,0.2-0.6,0.5-0.6c0,0,0.1,0,0.1,0
				c0.3,0.1,0.6,0.1,0.8,0.1c0.9,0,1.4-0.6,1.4-3.3c0-0.7-0.3-1-1.1-1c-0.5,0-1.3,0-2.4,0l0,7.8c0,0.4-0.3,0.6-0.6,0.6
				s-0.6-0.2-0.6-0.6V44z M139.4,40h-1.6c-0.6,0-0.8,0.1-0.9,0.5c-0.4,1.5-0.4,2-0.4,2c0,0.4,0.3,0.5,0.9,0.5c0.5,0,1.2,0,2,0
				c0-0.4,0-0.8,0-1.2V40z M143.3,40h-2.7v1.8c0,0.4,0,0.8,0,1.2l2.7,0V40z M143.3,35.9c-0.8,0-1.7,0-2.6,0c0,1,0,2,0,3h2.7V35.9z
				 M144.6,38.9c0.8,0,1.4,0,1.6,0c1,0,1.1-0.2,1.1-1.7c0-1.1-0.2-1.3-1-1.4c-0.4,0-1,0-1.7,0V38.9z"/>
			<path class="st0" d="M162.7,39.5c-0.8,0.9-1.6,1.7-2.5,2.5c1.1,0,1.9,0,3.2,0c0.8,0,1.3,0.4,1.3,1c0,0.3-0.1,1.1-2.6,2.7
				c0.2,0.2,0.3,0.4,0.4,0.7c1.3-0.2,2.6-0.5,3.4-0.7c0,0,0.1,0,0.1,0c0.3,0,0.5,0.3,0.5,0.5c0,0.4-0.1,0.5-3.7,1.2
				c0.1,0.4,0.1,0.8,0.1,1.1c0,0.3,0,3.9-3.3,3.9c-1.2,0-1.9-0.2-1.9-0.8c0-0.3,0.2-0.6,0.6-0.6c0,0,0.1,0,0.2,0
				c0.4,0.1,0.8,0.2,1.2,0.2c1.3,0,2.1-0.8,2.1-2.7c0-0.3,0-0.6-0.1-1c-0.8,0.1-4.8,0.9-5.4,0.9c-0.4,0-0.6-0.3-0.6-0.6
				c0-0.2,0.2-0.5,0.5-0.5c1.3-0.1,3.2-0.4,5-0.7c-0.3-0.6-0.8-1-1.5-1.3c-0.2-0.1-0.3-0.2-0.3-0.4c0-0.2,0.3-0.5,0.6-0.5
				c0.5,0,1.3,0.6,1.3,0.6c0.2-0.1,1.9-1.4,1.9-1.8c0-0.1-0.1-0.2-0.4-0.2c-1.3,0-2.1,0-3.9,0c-1.5,1.1-2.9,2-3.2,2
				c-0.3,0-0.6-0.3-0.6-0.6c0-0.2,0.1-0.4,0.3-0.5c2.2-1.1,4.1-2.6,5.8-4.4l-5.6,0c-0.4,0-0.6-0.3-0.6-0.6c0-0.3,0.2-0.5,0.6-0.5
				l4.3,0l0-2.7h-3.2c-0.4,0-0.6-0.3-0.6-0.5c0-0.2,0.2-0.5,0.6-0.5h3.2V32c0-0.4,0.3-0.6,0.6-0.6c0.3,0,0.6,0.2,0.6,0.6v2.7h2.3
				c0.3,0,0.5,0.3,0.5,0.5c0,0.2-0.2,0.5-0.5,0.5h-2.3l0,2.7h1c1.3-1.6,2.5-3.4,3.3-5.4c0.1-0.2,0.3-0.3,0.5-0.3
				c0.3,0,0.7,0.3,0.7,0.6c0,0.3-1.3,2.8-3.1,5.1l2,0c0.4,0,0.6,0.3,0.6,0.5c0,0.3-0.2,0.6-0.6,0.6L162.7,39.5z M174.2,37.9
				c-0.2,3.3-1.1,6.4-2.7,8.9c1.2,1.6,2.8,3,5,4c0.3,0.1,0.4,0.3,0.4,0.6c0,0.4-0.3,0.8-0.7,0.8c-0.3,0-3.2-1.3-5.3-4.4
				c-2.4,3.2-5.6,4.6-6,4.6c-0.4,0-0.7-0.3-0.7-0.7c0-0.2,0.1-0.4,0.4-0.6c2.4-1.1,4.3-2.5,5.6-4.4c-1.3-2.2-2-4.7-2.3-7.1
				c-1,2-1.4,2.4-1.8,2.4c-0.3,0-0.6-0.2-0.6-0.5c0-0.1,0-0.2,0.1-0.3c1.9-2.8,3-5.3,3.7-9c0.1-0.4,0.3-0.5,0.6-0.5
				c0.3,0,0.7,0.2,0.7,0.6c0,0,0,0.1,0,0.2c-0.4,1.5-0.9,3-1.4,4.3h6.7c0.4,0,0.6,0.3,0.6,0.6c0,0.3-0.2,0.6-0.6,0.6L174.2,37.9z
				 M168.7,37.9c0.1,2.9,0.7,5.6,2.1,7.8c1.3-2.2,2-4.9,2.2-7.8H168.7z"/>
			<path class="st0" d="M182.2,48.4c0-0.1,0-0.1,0.1-0.2c0.9-1.5,1-3.5,1-5.4c0-0.9,0-1.7,0-2.5c0-0.3,0.3-0.5,0.6-0.5
				c0.3,0,0.6,0.2,0.6,0.5c0,0.6,0,1.4,0,2.2c0,4.6-0.8,6.5-1.6,6.5C182.4,48.9,182.2,48.7,182.2,48.4z M186,37.7l-3,0
				c-0.4,0-0.6-0.3-0.6-0.6c0-0.3,0.2-0.6,0.6-0.6h6.9c0.4,0,0.6,0.3,0.6,0.6c0,0.3-0.2,0.6-0.6,0.6l-2.8,0l0,14.4
				c0,0.4-0.3,0.5-0.6,0.5c-0.3,0-0.6-0.2-0.6-0.5L186,37.7z M183.7,33.8c-0.4,0-0.6-0.3-0.6-0.5c0-0.3,0.2-0.6,0.6-0.6h5.6
				c0.4,0,0.6,0.3,0.6,0.6c0,0.3-0.2,0.6-0.6,0.6H183.7z M188.8,40.2c0-0.3,0.3-0.5,0.5-0.5c0.3,0,0.5,0.1,0.5,0.5v7.6
				c0,0.3-0.3,0.5-0.5,0.5c-0.3,0-0.5-0.1-0.5-0.5V40.2z M190.2,51.7c-0.3,0-0.5-0.3-0.5-0.5c0-0.3,0.2-0.5,0.5-0.5l4.4,0
				c-0.3-0.6-0.8-1.1-1.1-1.5c0-0.1-0.1-0.1-0.1-0.2c0-0.2,0.3-0.5,0.6-0.5c0.7,0,1.8,1.8,1.8,2.1c0,0,0,0.1,0,0.1h2.1
				c0.3-0.4,0.7-1.1,1-2c0.1-0.2,0.3-0.3,0.5-0.3c0.4,0,0.8,0.2,0.8,0.5c0,0.1,0,0.1-1,1.7l4,0c0.3,0,0.5,0.3,0.5,0.5
				c0,0.3-0.1,0.5-0.5,0.5H190.2z M191.3,42.1c-0.3,0-0.5-0.3-0.5-0.5c0-0.3,0.2-0.5,0.5-0.5h11.7c0.3,0,0.5,0.2,0.5,0.5
				c0,0.2-0.2,0.5-0.5,0.5H191.3z M198,32c0-0.4,0.3-0.5,0.6-0.5c0.3,0,0.5,0.2,0.5,0.5v1.5c0.5,0,1,0,1.5,0c1.9,0,1.9,1.5,1.9,2.8
				c0,0.5,0,1,0,1.4c0,1.1-0.7,1.8-1.9,1.8c-1.1,0-2.3,0-3.6,0c-1.2,0-2.4,0-3.5,0c-2-0.1-2-1.2-2-3c0-0.4,0-0.9,0-1.2
				c0-0.9,0.6-1.7,1.9-1.8h1.3V32c0-0.4,0.3-0.5,0.6-0.5c0.3,0,0.5,0.2,0.5,0.5v1.5h2V32z M197.1,47.9c-4.3,0-4.8,0-4.8-1.9
				c0-1.5,0-2.4,1.8-2.4c1,0,2,0,2.9,0c1,0,1.9,0,3,0c1.6,0,1.8,0.8,1.8,2.2C201.8,47.9,201.2,47.9,197.1,47.9z M194.9,34.4h-1.1
				c-0.8,0-1.1,0.5-1.2,1.2v0.5h2.2V34.4z M194.9,36.9h-2.2v0.7c0,0.7,0.3,1.1,1.2,1.1c0.3,0,0.7,0,1.1,0V36.9z M200.5,45.7
				c0-1.2-0.1-1.2-3.5-1.2c-3.2,0-3.5,0-3.6,0.8v0.9c0,0.8,0.2,0.9,3.3,0.9c3.6,0,3.7,0,3.8-0.8C200.5,46.1,200.5,45.9,200.5,45.7z
				 M198,34.4h-2.1v1.7h2.1V34.4z M198,36.9h-2.1v1.9h2.1V36.9z M201.4,36.1c0-0.2,0-0.4,0-0.6c0-0.7-0.4-1.1-1.2-1.1H199v1.7H201.4
				z M199,36.9v1.8c0.4,0,0.8,0,1.2,0c0.7,0,1.1-0.4,1.1-1.1c0-0.2,0-0.4,0-0.7H199z"/>
			<path class="st0" d="M211.5,52l0.3-13.8c-2.1,3-2.7,3.2-3,3.2c-0.3,0-0.6-0.3-0.6-0.6c0-0.1,0.1-0.3,0.2-0.5
				c2.5-2.6,4-4.9,5.5-8.4c0.1-0.3,0.3-0.4,0.6-0.4c0.4,0,0.8,0.3,0.8,0.7c0,0.5-1.8,3.5-2.1,4L212.9,52c0,0.4-0.3,0.6-0.7,0.6
				C211.9,52.6,211.5,52.4,211.5,52L211.5,52z M224.3,45c0.2,1.3,0.5,2.6,1.1,3.8c0.7-0.8,1.2-1.6,1.6-2.5c0.1-0.2,0.3-0.3,0.4-0.3
				c0.3,0,0.7,0.2,0.7,0.6c0,0.2-0.8,1.8-2.2,3.2c0.5,0.6,1.1,1.4,1.7,1.4c0.7,0,1-1.1,1.2-1.7c0.1-0.2,0.3-0.3,0.4-0.3
				c0.3,0,0.6,0.2,0.6,0.6s-0.6,2.5-2.3,2.5c-0.8,0-1.6-0.5-2.6-1.8c-1.7,1.3-3.7,1.8-4.2,1.8c-0.4,0-0.6-0.3-0.6-0.5
				c0-0.2,0.1-0.4,0.5-0.5c1.6-0.4,2.8-1,3.7-1.7c-0.7-1.4-1.1-2.9-1.4-4.6l-3.8,0v2c0.8-0.1,1.5-0.3,2.2-0.5c0,0,0.1,0,0.2,0
				c0.3,0,0.5,0.2,0.5,0.5c0,0.5-0.6,0.6-2.8,1.1v0.6l0,2v0c0,0.8-0.5,1.8-2.4,1.8c-0.7,0-1.9,0-1.9-0.7c0-0.3,0.2-0.6,0.6-0.6
				c0,0,0.1,0,0.2,0c0.4,0.1,0.8,0.1,1.1,0.1c0.7,0,1.1-0.3,1.1-1v-2.2c-0.2,0-2.5,0.4-3.1,0.4c-0.4,0-0.5-0.3-0.5-0.5
				c0-0.3,0.1-0.5,0.5-0.5c1.1-0.1,2.2-0.2,3.2-0.4v-2.2l-3.1,0c-0.3,0-0.5-0.2-0.5-0.5c0-0.2,0.2-0.5,0.5-0.5h3.1v-1.5
				c-1,0.1-2.2,0.2-2.4,0.2c-0.3,0-0.5-0.2-0.5-0.5c0-0.2,0.1-0.4,0.4-0.4c1.6-0.1,3.3-0.3,5-0.8c0,0,0.1,0,0.1,0
				c0.3,0,0.6,0.3,0.6,0.5c0,0.3-0.4,0.5-2.1,0.8v1.7h3.7c-0.1-0.8-0.1-1.7-0.1-2.5c0-0.4,0.3-0.6,0.6-0.6c0.3,0,0.6,0.2,0.6,0.6
				c0,0.8,0,1.6,0,2.4l5.1,0c0.3,0,0.5,0.2,0.5,0.5c0,0.2-0.2,0.5-0.5,0.5L224.3,45z M215.5,40.3c-0.3,0-0.5-0.2-0.5-0.5
				c0-0.2,0.1-0.5,0.5-0.5l5.9,0v-1.8l-4.8,0c-0.3,0-0.5-0.2-0.5-0.5c0-0.2,0.1-0.4,0.5-0.4h4.8V35l-5.4,0c-0.3,0-0.5-0.2-0.5-0.5
				c0-0.2,0.2-0.5,0.5-0.5h3.6c-0.1,0-0.1-0.1-0.2-0.2c-0.3-0.7-0.6-0.9-1.1-1.5c-0.1-0.1-0.1-0.2-0.1-0.3c0-0.3,0.3-0.5,0.7-0.5
				c0.5,0,1.7,1.5,1.7,2c0,0.3-0.2,0.5-0.4,0.6h2.9c0.4-0.7,0.9-1.6,1.2-2.3c0.1-0.2,0.3-0.3,0.5-0.3c0.4,0,0.8,0.3,0.8,0.7
				c0,0.2-0.7,1.2-1.2,2h4.3c0.3,0,0.5,0.2,0.5,0.5c0,0.2-0.2,0.5-0.5,0.5l-5.9,0v1.7l4.9,0c0.3,0,0.4,0.2,0.4,0.4
				c0,0.2-0.1,0.5-0.4,0.5l-4.9,0v1.8l6.5,0c0.3,0,0.4,0.2,0.4,0.5c0,0.2-0.1,0.5-0.4,0.5H215.5z M227.5,43.3
				c-0.5-0.6-1.3-1.1-2-1.5c-0.1-0.1-0.2-0.2-0.2-0.3c0-0.2,0.2-0.5,0.5-0.5c0.5,0,2.5,1.1,2.5,1.7c0,0.3-0.3,0.6-0.6,0.6
				C227.7,43.4,227.6,43.4,227.5,43.3z"/>
		</g>
		<path class="st0" d="M121.9,40.1l-7,0.1c-0.1-0.3-0.2-0.6-0.3-0.9c-0.3-0.7-0.6-1.3-1-1.8c1.2-0.8,3.3-2.5,4-3.3
			c0.3-0.3,0.5-0.7,0.5-1.1c0-0.7-0.5-1.3-1.7-1.3c-1.3,0-3.8,0-6.2,0c-1.5,0-3,0-4.1,0c-0.4,0-0.6,0.3-0.6,0.6
			c0,0.3,0.2,0.6,0.6,0.6h0c2,0,5.8-0.1,8.1-0.1c2,0,2.3,0,2.3,0.4c0,0.6-3.1,2.8-3.8,3.3c0,0,0,0,0,0c-0.6-0.5-1.3-0.7-2-0.8
			c-0.4,0-0.7,0.2-0.7,0.6c0,0.4,0.2,0.7,0.6,0.7c0.1,0,0.3,0,0.4,0.1c0.6,0.1,1,0.5,1.4,0.9c0.5,0.6,0.9,1.3,1.2,2.1h-0.4l-10.7,0
			c-0.4,0-0.6,0.3-0.6,0.6c0,0.3,0.2,0.6,0.6,0.6l11,0l0.5,0c0.3,1.2,0.3,2.5,0.2,3.7c-0.1,1.2-0.3,2.3-0.8,3.4
			c-0.3,0.7-0.7,1.3-1.3,1.8c-0.4,0.3-0.8,0.6-1.3,0.6c-0.1,0-0.2,0-0.3,0c-0.3,0.1-0.5,0.4-0.5,0.8c0.1,0.3,0.4,0.6,0.7,0.5
			c0.7,0,1.4-0.3,2-0.7c0.8-0.7,1.4-1.5,1.8-2.5c0.7-1.6,1-3.2,1-5.1c0-0.2,0-0.6,0-0.9c0-0.5-0.1-1.1-0.2-1.6l6.7,0
			c0.4,0,0.5-0.3,0.5-0.6C122.4,40.4,122.2,40.1,121.9,40.1z"/>
	</g>
</g>
</svg>
